<svg xmlns="http://www.w3.org/2000/svg" width="32" height="32" fill="none"><path fill="#1C2706" d="M27.642 17.24c-.053-1.226-1.19-2.175-2.46-1.871-3.054.73-6.254.269-9.35-.176-2.953-.424-6.006-.862-9-.303-3.984.745-4.99 2.634-5.536 6.086l-.915 5.78a.488.488 0 0 0 .965.153l.914-5.78c.505-3.191 1.277-4.63 4.752-5.28 2.835-.53 5.807-.102 8.681.31 3.186.459 6.482.932 9.716.16.95-.228 1.645.891 1.03 1.651-1.253 1.548-3.44 2.001-5.554 2.44-1.412.348-3.984.682-5.758 2.454-1.392 1.39-2.028 3.917-.626 5.575a.488.488 0 0 0 .745-.63c-.793-.94-.659-2.355-.037-3.447 2.241 1.378 2.564 3.803 1.544 5.01a.488.488 0 0 0 .745.63c1.39-1.644 1.004-4.716-1.703-6.424l.022-.023c1.525-1.523 3.863-1.846 5.266-2.19 2.176-.45 4.643-.961 6.115-2.78.09-.112.162-.232.225-.354 1.466.845 1.961 2.218 2.316 4.46l.914 5.781a.49.49 0 0 0 .965-.153l-.915-5.78c-.409-2.584-1.079-4.29-3.06-5.299ZM5.162 7.278a5.458 5.458 0 0 0 5.451 5.452 5.455 5.455 0 0 0 5.447-5.452 5.455 5.455 0 0 0-5.447-5.452 5.458 5.458 0 0 0-5.452 5.452Zm9.921 0a4.478 4.478 0 0 1-4.47 4.476 4.48 4.48 0 0 1-4.475-4.476 4.48 4.48 0 0 1 4.476-4.475 4.478 4.478 0 0 1 4.47 4.475Zm3.527 2.636a4.287 4.287 0 0 0 4.282 4.283 4.285 4.285 0 0 0 4.278-4.283 4.285 4.285 0 0 0-4.278-4.282 4.287 4.287 0 0 0-4.282 4.282Zm7.583 0a3.307 3.307 0 0 1-3.301 3.306 3.31 3.31 0 0 1-3.306-3.306 3.31 3.31 0 0 1 3.306-3.306 3.307 3.307 0 0 1 3.301 3.306Z"/></svg>