<svg xmlns="http://www.w3.org/2000/svg" width="32" height="32" fill="none"><path fill="#1C2706" d="M15.893 30.607a8.184 8.184 0 0 1-3.26-.674L7.699 27.79a18.71 18.71 0 0 0-5.61-1.462l-1.62-.162a.521.521 0 0 1-.469-.52v-5.081a.52.52 0 0 1 .104-.313c.122-.162 3.025-3.956 7.461-2.969 2.495.555 4.503 1.592 5.75 2.365a5.804 5.804 0 0 0 3.065.857h4.934c.85 0 1.597.45 2.015 1.125l4.25-4.895c.823-1.1 2.171-1.774 3.582-1.774h.318a.52.52 0 0 1 .477.731l-3.843 8.734a6.848 6.848 0 0 1-4.576 3.86l-.676.169-3.934 1.573a8.182 8.182 0 0 1-3.034.58Zm-14.85-5.433 1.15.115c2.043.204 4.04.725 5.922 1.543l4.934 2.145a7.175 7.175 0 0 0 5.492.081l3.965-1.586a.539.539 0 0 1 .067-.021l.71-.178a5.796 5.796 0 0 0 3.875-3.268l3.505-7.966a3.485 3.485 0 0 0-2.273 1.35l-4.707 5.424v.061a2.372 2.372 0 0 1-2.37 2.37H14.43c-.893 0-1.78.143-2.628.426l-.191-.486-.162-.496.026-.008a9.334 9.334 0 0 1 2.955-.48h6.884c.731 0 1.327-.595 1.327-1.326 0-.732-.595-1.327-1.327-1.327H16.38a6.847 6.847 0 0 1-3.615-1.014c-1.177-.73-3.074-1.71-5.426-2.233-3.359-.745-5.776 1.833-6.296 2.448v4.426Zm19.494-10.332c-.802 0-1.701-.248-2.691-.743a.525.525 0 0 1-.258-.29c-.04-.114-.972-2.794.509-4.776 1.076-1.44 3.1-2.09 6.018-1.927a.52.52 0 0 1 .491.494c.01.208.226 5.095-2.267 6.723-.53.346-1.132.52-1.802.52Zm-2.026-1.58c1.37.643 2.465.706 3.259.188 1.477-.966 1.797-3.831 1.805-5.322-2.287-.056-3.843.46-4.643 1.529-.951 1.274-.581 3.026-.421 3.605ZM12.562 8.01c-.925 0-1.991-.199-2.922-.88C8.06 5.973 7.335 3.77 7.483.582a.522.522 0 0 1 .49-.496c.225-.013 5.565-.298 7.361 2.399.837 1.255.768 2.9-.203 4.887a.52.52 0 0 1-.289.26 7.2 7.2 0 0 1-2.28.378ZM8.51 1.112c-.045 2.553.542 4.293 1.747 5.176 1.443 1.057 3.413.608 4.033.427.708-1.537.768-2.765.178-3.652-1.099-1.648-4.319-1.97-5.958-1.951Z"/><path fill="#1C2706" d="M16.635 21.364a.52.52 0 0 1-.522-.548c.03-.584.08-1.167.155-1.747.217-3.69.105-12.284-5.328-14.661a.522.522 0 0 1 .418-.956c3.201 1.401 5.216 4.889 5.824 10.086.054.466.095.925.126 1.372 1.43-3.616 3.62-4.893 3.75-4.966a.522.522 0 0 1 .513.908c-.055.032-3.413 2.046-4.255 8.26a25.039 25.039 0 0 1-.165 1.802.522.522 0 0 1-.516.45Z"/></svg>