<svg xmlns="http://www.w3.org/2000/svg" width="52" height="52" fill="none"><circle cx="26" cy="26" r="26" fill="#fff"/><path fill="#000" d="m23.652 33.476-2.096-.404c.002-.043.007-.085.007-.127v-1.303a5.46 5.46 0 0 0 2.55-3.264 1.934 1.934 0 0 0 .892-3.494l.063-.959a6.205 6.205 0 0 0-10.721-4.65 6.145 6.145 0 0 0-1.662 4.65l.063.96a1.934 1.934 0 0 0 .892 3.493 5.459 5.459 0 0 0 2.55 3.264v1.303c0 .042.004.084.006.127l-2.096.404a3.442 3.442 0 0 0-2.785 3.375v3.399a.437.437 0 0 0 .436.437H26a.437.437 0 0 0 .437-.437v-3.4a3.443 3.443 0 0 0-2.786-3.375Zm.636-6.04a5.53 5.53 0 0 0 .025-.518V25.49a1.06 1.06 0 0 1-.025 1.944Zm-10.73-3.568a5.33 5.33 0 0 1 9.208-3.993 5.278 5.278 0 0 1 1.428 3.993l-.043.673a1.933 1.933 0 0 0-.185-.018c-1.231-.421-2.25-1.66-2.26-1.672a.439.439 0 0 0-.552-.106c-3.32 1.845-7.229 1.775-7.267 1.775a1.643 1.643 0 0 0-.285.021l-.045-.673Zm-.745 2.588a1.06 1.06 0 0 1 .625-.965v1.427c0 .175.009.347.025.517a1.064 1.064 0 0 1-.65-.979Zm1.5.462V25.39c1.125-.031 4.148-.257 6.954-1.714a6.743 6.743 0 0 0 2.171 1.584v1.658a4.562 4.562 0 1 1-9.125 0Zm4.562 5.437a5.41 5.41 0 0 0 1.813-.311v.9a1.812 1.812 0 0 1-3.625 0v-.9a5.41 5.41 0 0 0 1.813.311Zm6.688 7.457H12.188v-2.96a2.567 2.567 0 0 1 2.077-2.517l2.112-.407a2.683 2.683 0 0 0 4.997 0l2.112.407a2.567 2.567 0 0 1 2.077 2.516v2.961Z"/><path fill="#000" d="M16.463 38.312h-1.5a.438.438 0 0 0 0 .875h1.5a.438.438 0 0 0 0-.875ZM38.17 34.18l-.837-.161.966-.086a1.941 1.941 0 0 0 1.766-1.97l-.125-6.247a6.025 6.025 0 0 0-12.048 0l-.125 6.248a1.945 1.945 0 0 0 1.767 1.969l.966.086-.838.161a3.11 3.11 0 0 0-2.517 3.05v3.02a.438.438 0 0 0 .437.437H40.25a.438.438 0 0 0 .437-.437v-3.02a3.11 3.11 0 0 0-2.517-3.05Zm-4.254-1.775A4.011 4.011 0 0 1 29.91 28.4v-1.442a6.057 6.057 0 0 0 1.89-1.38c2.455 1.264 5.089 1.478 6.123 1.51V28.4a4.011 4.011 0 0 1-4.007 4.006Zm-1.561.615a4.805 4.805 0 0 0 3.125 0v.737a1.562 1.562 0 1 1-3.125 0v-.737Zm-3.713-1.039.125-6.247a5.15 5.15 0 0 1 10.298 0l.125 6.248a1.064 1.064 0 0 1-.969 1.08l-1.866.165v-.605a4.88 4.88 0 0 0 2.443-4.222v-1.744a.439.439 0 0 0-.448-.439c-.035.003-3.487.068-6.434-1.57a.438.438 0 0 0-.552.106c-.01.011-.929 1.13-2.027 1.486a.437.437 0 0 0-.302.416V28.4a4.88 4.88 0 0 0 2.445 4.223v.604l-1.869-.165a1.068 1.068 0 0 1-.969-1.08Zm11.17 7.831H28.021V37.23a2.235 2.235 0 0 1 1.808-2.19l1.836-.355a2.437 2.437 0 0 0 4.506 0l1.834.354a2.234 2.234 0 0 1 1.808 2.19v2.583ZM25.698 17.723a.438.438 0 0 0 .606 0l2.194-2.11.003-.005a2.94 2.94 0 0 0 .936-2.06 2.357 2.357 0 0 0-.718-1.7 1.818 1.818 0 0 0-1.343-.535 2.39 2.39 0 0 0-1.375.49 2.39 2.39 0 0 0-1.375-.49 1.795 1.795 0 0 0-1.343.534 2.359 2.359 0 0 0-.72 1.7 2.944 2.944 0 0 0 .941 2.065l2.194 2.111ZM23.9 12.465a.937.937 0 0 1 .69-.278h.02c.407.02.792.2 1.07.5a.45.45 0 0 0 .639 0c.277-.3.661-.48 1.07-.5a.937.937 0 0 1 .71.278 1.482 1.482 0 0 1 .464 1.08 2.103 2.103 0 0 1-.675 1.439L26.001 16.8l-1.887-1.815a2.104 2.104 0 0 1-.675-1.441 1.482 1.482 0 0 1 .462-1.08Z"/></svg>