<svg xmlns="http://www.w3.org/2000/svg" width="33" height="32" fill="none"><g clip-path="url(#a)"><path fill="#1C2706" d="M29.976 3.974a9.244 9.244 0 0 0-13.083-.38l-.405.382A9.254 9.254 0 0 0 3.022 16.672l.912.966a2.7 2.7 0 0 0 2.824 3.75 2.687 2.687 0 0 0 2.992 3.17 2.687 2.687 0 0 0 2.992 3.17 2.71 2.71 0 0 0 4.523 2.464c3.043-2.874 2.948-2.73 3.235-3.215a2.693 2.693 0 0 0 3.86-2.761 2.697 2.697 0 0 0 3.17-2.996 2.71 2.71 0 0 0 2.434-4.55 9.227 9.227 0 0 0 .012-12.696ZM5.227 19.84a1.65 1.65 0 0 1 .067-2.328l2.774-2.619a1.647 1.647 0 0 1 2.26 2.396l-2.773 2.619a1.648 1.648 0 0 1-2.328-.068Zm2.993 3.172a1.649 1.649 0 0 1 .067-2.329l2.773-2.619a1.647 1.647 0 0 1 2.26 2.396l-2.773 2.619a1.648 1.648 0 0 1-2.327-.07v.003Zm2.992 3.17a1.65 1.65 0 0 1 .068-2.328l2.773-2.618a1.646 1.646 0 0 1 2.26 2.391l-2.773 2.619a1.647 1.647 0 0 1-2.328-.066v.002Zm5.32 3.239a1.646 1.646 0 0 1-2.26-2.395l2.773-2.62a1.646 1.646 0 0 1 2.26 2.396l-2.773 2.619Zm12.615-9.663a1.642 1.642 0 0 1-2.327-.067l-7.107-7.53a.533.533 0 1 0-.776.732l7.108 7.53a1.646 1.646 0 1 1-2.394 2.26l-7.108-7.53a.534.534 0 0 0-.777.732l7.107 7.529a1.645 1.645 0 0 1-2.022 2.552 2.692 2.692 0 0 0-2.597-3.079c-.587-.015-.373.207-.358-.38a2.714 2.714 0 0 0-2.634-2.79c-.587-.02-.376.213-.358-.381a2.712 2.712 0 0 0-2.635-2.791c-.59-.017-.376.218-.358-.38a2.716 2.716 0 0 0-4.574-2.052c-3.814 3.6-2.498 2.359-2.782 2.627l-.757-.8A8.186 8.186 0 1 1 15.712 4.71l-4.367 4.125c-.415.397-.659.94-.68 1.513-.054 2.19 3.204 3.57 5.195 1.685l3.981-3.757a.534.534 0 0 1 .754.021l8.62 9.134a1.644 1.644 0 0 1-.067 2.327Zm.09-3.856L21.37 7.565a1.601 1.601 0 0 0-2.262-.065l-3.982 3.758a2.188 2.188 0 0 1-3.097-.096 1.096 1.096 0 0 1 .048-1.554l5.547-5.239a8.187 8.187 0 0 1 11.614 11.533Z"/></g><defs><clipPath id="a"><path fill="#fff" d="M.5 0h32v32H.5z"/></clipPath></defs></svg>