<svg xmlns="http://www.w3.org/2000/svg" width="52" height="52" fill="none"><circle cx="26" cy="26" r="26" fill="#fff"/><path fill="#000" d="M26.9 19.267a3.137 3.137 0 0 0 3.134-3.133A3.137 3.137 0 0 0 26.9 13a3.137 3.137 0 0 0-3.133 3.134 3.137 3.137 0 0 0 3.133 3.133Zm0-5.417a2.286 2.286 0 0 1 2.284 2.284 2.286 2.286 0 0 1-2.284 2.283 2.286 2.286 0 0 1-2.283-2.283A2.286 2.286 0 0 1 26.9 13.85Zm12.821 20.754a3.13 3.13 0 0 0-1.855-5.658 3.13 3.13 0 0 0-1.855 5.657 1.73 1.73 0 0 0-1.242 1.387H33.36a2.76 2.76 0 0 0 .776-1.92 2.773 2.773 0 0 0-2.77-2.77H30.9v-7.145a3.836 3.836 0 0 0-3.831-3.831 3.823 3.823 0 0 0-2.897 1.328l-6.162 6.162a1.576 1.576 0 0 0-.247.32l-1.396-.805a1.582 1.582 0 0 0-2.159.579 1.57 1.57 0 0 0-.156 1.198c.11.41.37.75.735.96l6.257 3.613h-7.19a1.582 1.582 0 0 0-1.4 2.31h-.379c-.593 0-1.075.483-1.075 1.076v1.793c0 .593.482 1.075 1.075 1.075h27.836c.592 0 1.075-.482 1.075-1.075v-2.592c0-.792-.537-1.46-1.265-1.662Zm-4.138-2.524a2.286 2.286 0 0 1 2.283-2.284 2.286 2.286 0 0 1 2.284 2.284 2.286 2.286 0 0 1-2.284 2.283 2.286 2.286 0 0 1-2.283-2.283Zm.89 3.31h2.787c.393 0 .726.26.836.617a1.062 1.062 0 0 0-.186-.017h-4.267a.876.876 0 0 1 .83-.6Zm-9.404-14.216a2.984 2.984 0 0 1 2.98 2.981v7.146h-4.392l2.362-1.428c.542-.328.9-.805 1.064-1.417l.404-1.506a.424.424 0 0 0-.465-.536.424.424 0 0 0-.356.315l-.404 1.506a1.46 1.46 0 0 1-.684.91L23.524 31.6a.73.73 0 0 1-.756-1.25l3.931-2.377a.426.426 0 0 0 .191-.253l.898-3.353a.425.425 0 0 0-.82-.22l-.855 3.187-2.025 1.225v-4.403c0-.73.264-1.4.701-1.918l.028-.027a.419.419 0 0 0 .053-.065 2.974 2.974 0 0 1 2.199-.97Zm-5.392 9.219-1.126-.65 2.686-2.687v2.016l-.909.55c-.296.178-.524.45-.65.771Zm-3.066-1.978 4.646-4.646c-.013.129-.02.257-.02.386v1.7l-3.593 3.593a.731.731 0 0 1-1.033-1.033Zm-5.487 6.845a.73.73 0 0 1 .73-.73h8.777a.425.425 0 0 0 .212-.794l-7.631-4.406a.724.724 0 0 1-.34-.444.725.725 0 0 1 .516-.892.725.725 0 0 1 .554.072l1.608.927c.015.4.177.773.46 1.056a1.57 1.57 0 0 0 1.117.462c.262 0 .514-.063.739-.182l1.742 1.005a1.577 1.577 0 0 0 1.54 1.22c.288 0 .57-.079.816-.228l.288-.174 7.114-.001c1.059 0 1.92.86 1.92 1.92a1.922 1.922 0 0 1-1.92 1.919h-6.04a.731.731 0 0 1 0-1.46h5.92a.425.425 0 0 0 0-.85h-5.92a1.582 1.582 0 0 0-1.4 2.31H13.853a.731.731 0 0 1-.73-.73Zm27.011 3.598a.225.225 0 0 1-.224.225H12.075a.225.225 0 0 1-.225-.225v-1.793a.225.225 0 0 1 .225-.225h27.836a.225.225 0 0 1 .224.225v1.793Z"/></svg>