<svg xmlns="http://www.w3.org/2000/svg" width="320" height="32" fill="none">
  <path fill="#1C2706" d="M12.17 3.823C9.247 7.5 8.154 15.907 8.154 15.907s9.612-1.277 13.321-4.834c3.102-2.974 3.576-6.373.913-9.295-2.894-3.174-7.117-1.859-10.22 2.045Zm.182 24.354C9.431 24.5 8.155 16.093 8.155 16.093s9.795 1.277 13.504 4.834c3.102 2.974 3.576 6.373.912 9.295-2.894 3.174-7.117 1.859-10.219-2.045ZM5.91 10.316c1.348 1.696 1.852 5.576 1.852 5.576s-4.435-.59-6.147-2.23c-1.432-1.373-1.65-2.942-.421-4.29 1.335-1.464 3.284-.858 4.716.944Zm-.084 11.239c1.348-1.697 1.936-5.577 1.936-5.577s-4.52.59-6.231 2.23c-1.432 1.373-1.65 2.942-.421 4.29 1.335 1.465 3.284.858 4.716-.943Z"/>
  <text x="30" y="22" fill="#1C2706" font-family="'Playfair Display', Georgia, 'Times New Roman', serif" font-size="18" font-weight="700">Faustyna Szaynok-Sędzik</text>
</svg>
