<svg xmlns="http://www.w3.org/2000/svg" width="52" height="52" fill="none"><circle cx="26" cy="26" r="26" fill="#fff"/><g clip-path="url(#a)"><path fill="#000" fill-rule="evenodd" d="M30.172 24.885c-1.107 0-2.006-.881-2.006-1.95v-.937h-.863c-1.106 0-2.006-.862-2.006-1.93a1.98 1.98 0 0 1 2.006-1.988h.863v-.937c0-1.069.9-1.95 2.006-1.95 1.068 0 1.93.881 1.93 1.95v.937h.938c1.087 0 2.006.919 2.006 1.987 0 1.05-.919 1.931-2.006 1.931h-.938v.937c0 1.069-.862 1.95-1.93 1.95Zm-2.288 16.347c-.412 0-.824-.075-1.237-.206l-6.336-1.856a.571.571 0 0 1-.281.562l-3.618 2.062c-.281.131-.619.056-.769-.206l-5.568-9.56a.574.574 0 0 1 .207-.77L13.9 29.14c.6-.356.9.431 1.124.788l.507-.282c1.368-.824 3-1.03 4.611-.618 1.744.469 3.956 1.387 6.112 2.287 1.03.431 2.005.825 2.868 1.162.675.225 1.218.788 1.462 1.481l7.424-4.011c1.762-1.013 3.749.093 3.974 1.987.112 1.087-.394 2.043-1.35 2.568l-10.685 6.186c-.694.356-1.388.544-2.063.544Zm-8.342-3.468 7.424 2.193c.825.244 1.593.169 2.437-.281l10.685-6.168c1.65-.918.45-3.599-1.537-2.568l-7.892 4.255c-.262.994-.731 2.175-2.043 1.706l-6.43-2.118c-.694-.244-.338-1.312.356-1.069.6.207 6.542 2.213 6.636 2.156.188-.112.412-.974.431-1.124.038-.413-.431-1.125-.88-1.219-.882-.337-1.875-.75-2.907-1.181-2.118-.881-4.293-1.78-5.98-2.23-1.293-.338-2.624-.17-3.73.487l-.525.3 3.955 6.86Zm-8.21-5.812 5.005 8.586 2.643-1.518-4.987-8.624-2.662 1.556Zm18.84-2.024a.522.522 0 0 1-.394-.15L20.46 20.48c-3.918-3.88-.956-10.348 4.274-10.348 1.631 0 3.13.637 4.274 1.8l1.163 1.124 1.162-1.125c3.974-3.936 10.292-.956 10.292 4.274 0 1.613-.62 3.131-1.744 4.275l-9.317 9.298a.522.522 0 0 1-.393.15Zm-5.437-18.672c-4.124 0-6.749 5.137-3.468 8.418l8.905 8.904 8.904-8.904c3.13-3.131.787-8.418-3.468-8.418-3.712 0-4.762 3.975-5.83 2.981-1.612-1.537-2.662-2.98-5.043-2.98Zm2.568 7.949c-1.124 0-1.18 1.687 0 1.687 2.25 0 1.988-.262 1.988 2.043 0 1.069 1.687 1.088 1.687 0 0-2.324-.263-2.043 2.062-2.043.468 0 .88-.394.88-.825 0-.525-.45-.862-.88-.862-2.325 0-2.062.262-2.062-2.062 0-1.088-1.688-1.069-1.688 0 0 2.305.263 2.062-1.987 2.062Z" clip-rule="evenodd"/></g><defs><clipPath id="a"><path fill="#fff" d="M10 10h32v32H10z"/></clipPath></defs></svg>