<svg xmlns="http://www.w3.org/2000/svg" width="52" height="52" fill="none"><circle cx="26" cy="26" r="26" fill="#fff"/><g clip-path="url(#a)"><path fill="#1C2706" d="M41.735 22.725c-.097-.718-.555-1.207-1.165-1.246-.558-.035-1.23.343-1.476 1.266-.286 1.067-1.134 3.532-1.918 5.305a1.49 1.49 0 0 0-.801-.51 1.482 1.482 0 0 0-1.467.427c-1.59 1.587-3.046 2.19-4.332 2.722-1.189.492-2.216.916-2.873 1.993-.654 1.072-.862 2.693-.666 5.233a1.24 1.24 0 0 0-.77 1.145v2.242a.438.438 0 0 0 .437.437h6.93a.438.438 0 0 0 .437-.437V39.06c0-.475-.269-.888-.662-1.095.417-.969 1.17-1.768 2.217-2.696.242-.215.501-.435.776-.67.654-.556 1.331-1.132 1.924-1.752 1.25-1.306 1.678-2.485 2.146-4.008.506-1.647 1.397-5.13 1.263-6.114Zm-8.539 18.14h-6.054V39.06a.363.363 0 0 1 .362-.363h5.33a.363.363 0 0 1 .362.363v1.804Zm6.44-12.283c-.446 1.451-.823 2.49-1.942 3.66-.562.588-1.221 1.149-1.859 1.691-.278.237-.541.46-.79.682-.954.846-2 1.854-2.522 3.207h-4.616c-.174-2.3 0-3.793.543-4.684.509-.833 1.327-1.172 2.46-1.64 1.296-.536 2.908-1.203 4.622-2.918a.62.62 0 0 1 .627-.192.619.619 0 0 1 .455.452c.253.997-2.45 3.196-3.595 3.558a.438.438 0 1 0 .263.834c.966-.305 3.388-1.957 4.05-3.52l.002.001c.944-1.672 2.223-5.316 2.605-6.742.118-.442.38-.632.576-.619.181.012.313.195.353.49.09.666-.6 3.684-1.232 5.74Zm-14.673 9.333c.195-2.54-.012-4.161-.666-5.233-.657-1.077-1.684-1.501-2.873-1.993-1.286-.532-2.743-1.135-4.332-2.722a1.482 1.482 0 0 0-1.467-.427 1.49 1.49 0 0 0-.801.51c-.784-1.772-1.632-4.238-1.918-5.305-.247-.924-.92-1.3-1.476-1.266-.61.039-1.068.528-1.165 1.246-.134.983.756 4.467 1.263 6.114.468 1.523.896 2.702 2.146 4.008.593.62 1.27 1.196 1.924 1.753.274.234.534.454.776.67 1.046.927 1.8 1.726 2.217 2.695-.393.207-.663.62-.663 1.095v2.24a.438.438 0 0 0 .438.438h6.93a.437.437 0 0 0 .437-.438v-2.24c0-.517-.319-.96-.77-1.145Zm-8.008-3.3a47.858 47.858 0 0 0-.79-.681c-.638-.543-1.297-1.104-1.86-1.692-1.119-1.17-1.495-2.209-1.941-3.66-.632-2.056-1.323-5.074-1.232-5.739.04-.296.172-.479.353-.49.196-.014.457.175.576.618.382 1.427 1.662 5.07 2.604 6.742h.002c.662 1.562 3.085 3.214 4.051 3.519a.438.438 0 0 0 .263-.834c-1.145-.362-3.848-2.56-3.595-3.558a.619.619 0 0 1 .455-.452.619.619 0 0 1 .627.192c1.714 1.715 3.326 2.382 4.622 2.917 1.133.47 1.951.808 2.46 1.641.543.89.717 2.384.543 4.684h-4.616c-.521-1.353-1.568-2.361-2.522-3.207Zm7.903 6.249h-6.055V39.06a.363.363 0 0 1 .363-.363h5.33a.363.363 0 0 1 .362.363v1.804Zm.601-22.354a.777.777 0 0 0 1.081 0c2.228-2.135 3.932-3.924 3.932-5.88 0-1.306-1.101-2.368-2.455-2.368-.864 0-1.53.259-2.017.788-.487-.53-1.153-.788-2.017-.788-1.354 0-2.455 1.062-2.455 2.368 0 1.956 1.704 3.745 3.931 5.88Zm-1.476-7.373c.803 0 1.293.261 1.635.874a.438.438 0 0 0 .764 0c.342-.613.831-.874 1.635-.874.871 0 1.58.67 1.58 1.493 0 1.715-1.977 3.632-3.597 5.185-1.62-1.553-3.597-3.47-3.597-5.185 0-.824.709-1.493 1.58-1.493Zm-2.96 17.223a.438.438 0 0 0 .436.477h9.081a.438.438 0 0 0 .436-.477 4.982 4.982 0 0 0-1.596-3.227 4.986 4.986 0 0 0-1.739-1.04c.59-.478.968-1.208.968-2.025A2.612 2.612 0 0 0 26 19.459a2.607 2.607 0 0 0-1.642 4.635 4.986 4.986 0 0 0-1.738 1.039 4.982 4.982 0 0 0-1.596 3.227ZM26 20.334c.956 0 1.734.778 1.734 1.734s-.778 1.734-1.734 1.734a1.736 1.736 0 0 1-1.734-1.734c0-.956.778-1.734 1.734-1.734Zm0 4.358a4.097 4.097 0 0 1 4.034 3.27h-8.068A4.097 4.097 0 0 1 26 24.692Zm3.354-1.954a.44.44 0 0 0 .323.143h8.077a.438.438 0 0 0 .435-.477 4.479 4.479 0 0 0-1.435-2.901 4.482 4.482 0 0 0-1.484-.906 2.363 2.363 0 0 0 .814-1.785 2.372 2.372 0 0 0-2.369-2.369 2.366 2.366 0 0 0-1.555 4.154 4.483 4.483 0 0 0-1.483.905 4.479 4.479 0 0 0-1.436 2.902.437.437 0 0 0 .113.334Zm4.361-7.42c.824 0 1.494.67 1.494 1.494s-.67 1.494-1.494 1.494-1.494-.67-1.494-1.494.67-1.494 1.494-1.494Zm0 3.876a3.596 3.596 0 0 1 3.528 2.812h-7.056a3.596 3.596 0 0 1 3.528-2.812ZM14.246 22.88h8.077a.44.44 0 0 0 .436-.477 4.48 4.48 0 0 0-1.436-2.901 4.484 4.484 0 0 0-1.483-.906 2.363 2.363 0 0 0 .814-1.785 2.372 2.372 0 0 0-2.37-2.369 2.366 2.366 0 0 0-1.554 4.154 4.483 4.483 0 0 0-1.484.905 4.48 4.48 0 0 0-1.435 2.902.437.437 0 0 0 .435.477Zm4.039-7.563c.823 0 1.494.67 1.494 1.494s-.67 1.494-1.494 1.494-1.494-.67-1.494-1.494.67-1.494 1.494-1.494Zm0 3.876a3.596 3.596 0 0 1 3.528 2.812h-7.056a3.596 3.596 0 0 1 3.528-2.812Z"/></g><defs><clipPath id="a"><path fill="#fff" d="M10 10h32v32H10z"/></clipPath></defs></svg>